<?xml version="1.0" encoding="utf-8"?>
<!-- Generator: Adobe Illustrator 21.1.0, SVG Export Plug-In . SVG Version: 6.00 Build 0)  -->
<svg version="1.1" xmlns="http://www.w3.org/2000/svg" xmlns:xlink="http://www.w3.org/1999/xlink" x="0px" y="0px"
	 viewBox="0 0 192.3 156.6" style="enable-background:new 0 0 192.3 156.6;" xml:space="preserve">
<style type="text/css">
	.st0{fill:#0000FF;}
	.st1{fill:#224E97;}
	.st2{opacity:0.26;}
	.st3{fill:#E4007F;}
	.st4{display:none;}
	.st5{display:inline;}
</style>
<g id="レイヤー_1">
	<text transform="matrix(0.9848 0 -0.1736 0.9848 4.5302 283.0315)"><tspan x="0" y="0" style="font-family:'YuGo-Bold-83pv-RKSJ-H'; font-size:20.6171px;">利</tspan><tspan x="21" y="0" style="font-family:'YuGo-Bold-83pv-RKSJ-H'; font-size:20.6171px;">用</tspan><tspan x="42.5" y="0" style="font-family:'YuGo-Bold-83pv-RKSJ-H'; font-size:20.6171px; letter-spacing:1;">状</tspan><tspan x="64.3" y="0" style="font-family:'YuGo-Bold-83pv-RKSJ-H'; font-size:20.6171px;">況：利用中</tspan></text>
	<text transform="matrix(0.9848 0 -0.1736 0.9848 4.5302 314.0315)"><tspan x="0" y="0" style="font-family:'YuGo-Bold-83pv-RKSJ-H'; font-size:20.6171px;">利用時間：</tspan><tspan x="103.1" y="0" style="font-family:'YuGo-Bold-83pv-RKSJ-H'; font-size:20.6171px; letter-spacing:4.1;">7</tspan><tspan x="119.6" y="0" style="font-family:'YuGo-Bold-83pv-RKSJ-H'; font-size:20.6171px;">分</tspan></text>
	<text transform="matrix(0.9848 0 -0.1736 0.9848 4.5302 355.0858)"><tspan x="0" y="0" style="font-family:'YuGo-Bold-83pv-RKSJ-H'; font-size:20.6171px;">Q</tspan><tspan x="15.8" y="0" style="font-family:'YuGo-Bold-83pv-RKSJ-H'; font-size:20.6171px; letter-spacing:5.1;">R</tspan><tspan x="35.3" y="0" style="font-family:'YuGo-Bold-83pv-RKSJ-H'; font-size:20.6171px;">を表示</tspan></text>
	<g>
		<polygon class="st0" points="69.8,221.9 65.1,221.9 64.4,225.8 69.1,225.8 		"/>
		<polygon class="st0" points="71,215 66.3,215 65.7,218.8 70.3,218.8 		"/>
		<polygon class="st0" points="68.6,228.9 63.9,228.9 63.2,233 67.9,233 		"/>
		<path class="st0" d="M4.5,204.3v48.2h186.3v-48.2H4.5z M63.8,211.7c0.3,0,1,0.1,3.5,0.1h3.9c2.5,0,3.3-0.1,3.6-0.1
			c0.4,0,0.4,0,0.4,0.4c0,0.2-0.4,1.8-1,5.3l-2.3,13c-0.6,3.4-0.8,5.1-0.9,5.3c-0.1,0.4-0.1,0.4-0.5,0.4c-0.3,0-1.1-0.1-3.5-0.1H63
			c-2.5,0-3.3,0.1-3.6,0.1c-0.4,0-0.4,0-0.4-0.4c0-0.3,0.4-1.9,1-5.3l2.3-13c0.6-3.5,0.8-5,0.9-5.3
			C63.3,211.7,63.4,211.7,63.8,211.7z M27.9,238.2l-0.4,2.1c-0.5,2.6-0.6,3.8-0.6,4.1c-0.1,0.4-0.1,0.4-0.5,0.4h-3.1
			c-0.4,0-0.4,0-0.4-0.4c0-0.3,0.3-1.5,0.8-4.1l0.4-2.1h-2c-3.5,0-4.7,0.1-4.9,0.1c-0.4,0-0.4,0-0.4-0.4l0.5-2.7
			c0.1-0.4,0.1-0.4,0.5-0.4c0.2,0,1.4,0.1,4.9,0.1h2l0.5-2.8h-1.8c-3.1,0-4.3,0.1-4.6,0.1c-0.4,0-0.5,0-0.4-0.4l0.5-2.6
			c0.1-0.4,0.1-0.4,0.6-0.4c0.2,0,1.1,0.1,3.2,0.1c-0.2-1.1-0.6-2.3-1.1-3.3c-0.2-0.4,0-0.5,0.5-0.7l2.3-0.8
			c0.5-0.2,0.5-0.1,0.7,0.2c0.5,1,1,2,1.2,3.2c0.1,0.4,0,0.5-0.5,0.7l-2,0.8H29c0.8-1.1,1.6-2.4,2.2-3.4c0.3-0.6,0.6-1.1,0.7-1.5
			c1.3,0.2,2.2,0.4,3.1,0.8c0.4,0.1,0.6,0.3,0.5,0.5c0,0.2-0.1,0.3-0.4,0.4c-0.3,0.2-0.5,0.5-0.7,0.8c-0.5,0.7-1.1,1.5-1.7,2.4
			c2.6,0,3.8-0.1,4-0.1c0.4,0,0.5,0,0.4,0.4l-0.5,2.6c-0.1,0.4-0.1,0.4-0.6,0.4c-0.2,0-1.4-0.1-4.5-0.1H29l-0.5,2.8h2.8
			c3.5,0,4.7-0.1,4.9-0.1c0.4,0,0.4,0,0.4,0.4l-0.5,2.7c-0.1,0.4-0.1,0.4-0.5,0.4c-0.2,0-1.4-0.1-4.9-0.1H27.9z M48.6,213.5l-0.5,3
			c-0.1,0.4-0.1,0.4-0.5,0.4c-0.2,0-1.5-0.1-5-0.1H31.9l-0.5,3.1h8c3.9,0,5.2-0.1,5.5-0.1c0.4,0,0.4,0,0.4,0.4
			c0,0.2-0.5,2.2-1.1,5.9L42,238.1c-0.2,1.4-0.4,2.6-0.7,3.9c-0.2,1.2-0.6,2-1.5,2.6c-0.9,0.7-1.9,1-5.7,1c-1.3,0-1.3,0-1.3-1.2
			c0-1-0.2-2-0.6-2.8c1.3,0.1,2.5,0.1,3.5,0.1c1,0,1.4-0.3,1.6-1.3l3-16.8H17.7l-2.9,16.5c-0.6,3.4-0.8,5.1-0.9,5.3
			c-0.1,0.4-0.1,0.4-0.6,0.4H10c-0.4,0-0.4,0-0.4-0.4c0-0.2,0.4-1.8,1-5.4l2.5-14c0.6-3.6,0.9-5.3,0.9-5.6c0.1-0.4,0.1-0.4,0.5-0.4
			c0.2,0,1.6,0.1,5.4,0.1h7.2l0.5-3.1h-9.9c-3.5,0-4.8,0.1-5,0.1c-0.4,0-0.4,0-0.4-0.4l0.5-3c0.1-0.4,0.1-0.4,0.5-0.4
			c0.2,0,1.5,0.1,5,0.1h9.9c0.3-1.8,0.4-2.7,0.4-3.9c1.5,0,3,0.1,4.4,0.3c0.4,0,0.6,0.2,0.6,0.4c-0.1,0.3-0.2,0.5-0.4,0.8
			c-0.2,0.4-0.4,0.8-0.7,2.4h10.6c3.5,0,4.8-0.1,5-0.1C48.6,213.1,48.6,213.1,48.6,213.5z M53.7,246.1h-3.1c-0.4,0-0.4,0-0.3-0.4
			c0-0.2,0.5-2.2,1.2-6.1l2.4-13.7c-0.8,1-1.6,2-2.4,2.9c-0.3,0.4-0.6,0.6-0.8,0.6s-0.3-0.2-0.4-0.7c-0.1-1.3-0.4-2.7-0.7-3.3
			c3.5-3.8,6.6-8.1,8.8-13.2c0.4-0.9,0.6-1.6,0.9-2.6c1.1,0.3,2.2,0.7,3.3,1.2c0.4,0.2,0.6,0.4,0.5,0.7c0,0.2-0.2,0.4-0.6,0.7
			c-0.3,0.2-0.6,0.7-1,1.6c-0.8,1.7-1.7,3.4-2.7,5l-3.7,20.9c-0.7,3.9-1,5.9-1,6.1C54.1,246,54.1,246.1,53.7,246.1z M64,239.1
			c0,0.2-0.1,0.3-0.4,0.5c-0.4,0.2-0.6,0.4-1.1,1c-1.3,1.5-2.7,3-4.5,4.4c-0.5,0.4-0.8,0.6-1,0.6c-0.2,0-0.4-0.2-0.7-0.8
			c-0.4-0.7-1-1.2-1.5-1.6c2.4-1.6,3.9-3.1,5.3-4.8c0.4-0.5,0.6-0.9,1-1.6c1,0.5,1.8,1.1,2.4,1.6C64,238.6,64,238.9,64,239.1z
			 M69.6,244.2c-0.5,0.5-0.8,0.7-1,0.7c-0.2,0-0.4-0.2-0.7-0.8c-1.1-1.8-1.8-3.2-2.6-5.2c-0.1-0.4,0-0.4,0.5-0.7l2.2-1.2
			c0.5-0.3,0.6-0.2,0.8,0.1c0.9,2,1.7,3.5,3.4,5.2C71.3,242.8,70.4,243.4,69.6,244.2z M73.5,234.9c0-0.2,0.4-1.8,1-5.2l1.9-10.8
			c0.5-2.6,0.7-4,0.8-5.9c1.2,0,2.4,0.1,3.8,0.3c0.4,0,0.5,0.2,0.5,0.4c0,0.3-0.3,0.6-0.4,0.9c-0.3,0.6-0.4,1.4-0.9,4.3l-1.9,10.8
			c-0.6,3.4-0.8,5-0.8,5.2c-0.1,0.4-0.1,0.4-0.5,0.4h-3C73.5,235.3,73.4,235.3,73.5,234.9z M88.1,211.6c-0.2,0.5-0.4,1.3-0.9,4
			l-3,17c-0.5,2.8-0.9,6-1.3,8c-0.4,2.1-1.1,3.3-2.2,4c-1,0.6-2.2,0.9-4.9,0.9c-1.3,0-1.3,0-1.3-1.2c0-1.2-0.2-2.3-0.5-3
			c1.3,0.1,2.2,0.1,3.2,0.1c1.1,0,1.6-0.3,1.8-1.5l4.3-24.2c0.5-2.6,0.6-3.8,0.7-5.7c1.5,0,2.6,0.1,4.1,0.3c0.4,0,0.6,0.2,0.5,0.4
			C88.5,211.1,88.3,211.3,88.1,211.6z M115.8,228.9c-0.8,1.3-1.6,2.6-2.3,3.5c-0.2,0.3-0.4,0.4-0.6,0.4c-0.1,0-0.3,0-0.4-0.2
			c-3.3-2.4-6.6-4.1-9.6-5.1l-1.6,8.8c-0.5,2.6-0.8,5-1.2,7.8c0,0.5-0.3,0.6-0.8,0.6c-1.2,0.1-2.4,0.1-3.6,0c-0.6,0-0.7-0.1-0.7-0.6
			c0.6-3,1.1-5.3,1.5-7.9l3.5-19.7c0.5-3,0.6-4.3,0.6-5.9c1.8,0.1,3.8,0.3,4.9,0.6c0.5,0.1,0.7,0.4,0.6,0.7c0,0.2-0.2,0.6-0.5,0.9
			c-0.4,0.5-0.5,1.5-0.9,3.8l-1,5.7c4.6,1.5,8.2,3.1,11.8,5.4C116,228.1,116.1,228.4,115.8,228.9z M151.6,214.1
			c-0.1,0.3-0.4,0.7-0.7,0.9c-0.8,0.4-1.5,1-2.8,2.2c-1.9,1.9-3.6,3.4-5.6,5l-2.3,13.2c-0.5,2.8-0.9,5.1-1.3,8.3
			c-0.1,0.5-0.3,0.7-0.7,0.7c-1.3,0.1-2.7,0.1-4,0c-0.4,0-0.6-0.2-0.4-0.6c0.5-2.9,1.1-5.5,1.6-8.2l1.6-9.3c-4,3-8.9,6-12.4,7.7
			c-0.2,0.1-0.4,0.2-0.6,0.2c-0.3,0-0.5-0.1-0.8-0.4c-0.8-0.9-1.9-1.7-3-2.4c6-2.8,9.8-5.2,14-8.2c3.6-2.6,7-5.4,10-8.4
			c1.6-1.6,2.3-2.4,3.2-4.1c1.6,1,3.2,2.1,3.9,2.8C151.6,213.7,151.6,213.9,151.6,214.1z M184.9,227.4c0.1,0.8-0.1,1.2-0.7,1.6
			c-3.8,2.8-7.5,5-11.2,6.9c-3.4,1.8-6.8,3.4-10.7,5c-1.1,0.4-1.9,0.8-2.5,1.3c-0.3,0.2-0.5,0.3-0.8,0.3s-0.4-0.1-0.6-0.3
			c-0.8-0.8-1.4-1.6-2-2.7c-0.1-0.2-0.2-0.4-0.1-0.6c0-0.2,0.2-0.4,0.3-0.7c0.2-0.4,0.4-1.2,0.6-2.3l2.7-15c0.6-3.3,0.8-5.2,0.8-7
			c2.2,0.3,4.2,0.6,5,0.9c0.4,0.1,0.6,0.4,0.5,0.8c0,0.2-0.2,0.5-0.3,0.8c-0.4,0.8-0.8,2.1-1.3,5l-2.7,14.7c3.3-1.2,6.5-2.6,11.1-5
			c5.1-2.7,8.2-5,12-8.2C184.8,224.6,184.7,226.2,184.9,227.4z"/>
	</g>
	<g>
		<path class="st1" d="M60.2,31.2c-0.7-0.5-1.4-1.1-2.4-1.6c-0.4,0.7-0.6,1.1-1,1.6c-1.4,1.7-2.9,3.2-5.3,4.8c0.5,0.4,1.1,1,1.5,1.6
			c0.3,0.5,0.5,0.8,0.7,0.8c0.2,0,0.5-0.2,1-0.6c1.7-1.4,3.2-3,4.5-4.4c0.5-0.6,0.7-0.8,1.1-1c0.3-0.2,0.4-0.3,0.4-0.5
			C60.6,31.7,60.5,31.4,60.2,31.2z"/>
		<path class="st1" d="M55.5,11.5c1-1.6,1.9-3.3,2.7-5c0.4-1,0.7-1.4,1-1.6c0.4-0.3,0.5-0.5,0.6-0.7c0-0.3-0.2-0.5-0.5-0.7
			c-1-0.5-2.1-0.9-3.3-1.2c-0.3,1-0.6,1.7-0.9,2.6c-2.3,5.1-5.3,9.4-8.8,13.2c0.3,0.6,0.6,2,0.7,3.3c0,0.5,0.2,0.7,0.4,0.7
			s0.4-0.2,0.8-0.6c0.8-0.9,1.7-1.9,2.4-2.9L48,32.4c-0.7,3.9-1.1,5.8-1.2,6.1c-0.1,0.4,0,0.4,0.3,0.4h3.1c0.4,0,0.4,0,0.5-0.4
			c0-0.2,0.3-2.2,1-6.1L55.5,11.5z"/>
		<path class="st1" d="M24.9,3.9c0-0.2-0.2-0.4-0.6-0.4C23,3.3,21.6,3.2,20,3.2c-0.1,2-0.3,3.2-0.8,6.1l-0.5,3h-4.2
			c-3.6,0-4.8-0.1-5.1-0.1c-0.4,0-0.5,0-0.6,0.4l-0.6,3.2c-0.1,0.4,0,0.4,0.4,0.4c0.2,0,1.5-0.1,5.1-0.1H18l-1.5,8.7
			c-2.6,1.3-5,2.3-7.4,3.2c-1.5,0.5-2.3,0.8-3.6,1c0,1.4,0.3,3.1,0.6,4.1c0.1,0.3,0.2,0.5,0.4,0.5c0.2,0,0.5-0.2,0.7-0.4
			c0.2-0.2,0.6-0.4,1.3-0.7c2.1-1,4.7-2.1,7.3-3.5l-0.4,2.3c-0.8,4.3-1.2,6.4-1.3,6.7c-0.1,0.4,0,0.4,0.4,0.4h3.5
			c0.4,0,0.4,0,0.5-0.4c0-0.2,0.3-2.4,1.1-6.7l3.9-22.2c0.5-2.9,0.7-3.9,1-4.4C24.7,4.4,24.8,4.2,24.9,3.9z"/>
		<path class="st1" d="M56.7,23.3c-0.6,3.4-1,5-1,5.3C55.6,29,55.6,29,56,29c0.3,0,1.1-0.1,3.6-0.1h3.9C66,29,66.8,29,67,29
			c0.4,0,0.4,0,0.5-0.4c0-0.2,0.3-1.9,0.9-5.3l2.3-13c0.6-3.5,1-5.1,1-5.3c0.1-0.4,0-0.4-0.4-0.4c-0.3,0-1.1,0.1-3.6,0.1h-3.9
			c-2.5,0-3.3-0.1-3.5-0.1c-0.4,0-0.4,0-0.5,0.4c0,0.3-0.2,1.8-0.9,5.3L56.7,23.3z M62.9,7.8h4.7l-0.7,3.8h-4.7L62.9,7.8z
			 M61.7,14.7h4.7l-0.7,3.8H61L61.7,14.7z M60.4,21.7h4.7l-0.7,4h-4.7L60.4,21.7z"/>
		<path class="st1" d="M40.9,8.5c-0.7,0.9-1.5,1.6-2.4,2.2c-1.9,1.4-4.3,3.2-7,4.7l1-5.9c0.6-3.2,0.8-4.3,1.1-4.7
			c0.2-0.2,0.4-0.4,0.4-0.8c0.1-0.4-0.2-0.5-0.7-0.6c-1.3-0.2-2.6-0.2-4.1-0.3c-0.1,1.9-0.4,3.8-0.9,6.4l-4.1,23.5
			c-0.4,2.3-0.1,3,0.7,3.6c1,0.8,2.4,1,6.3,1c3.1,0,5.1-0.4,6.4-1.3c1.4-0.9,2.6-2.5,3.6-6.7c0.3-1.1,0.3-1.1-0.7-1.4
			c-1-0.3-1.9-0.7-2.7-1.4c-0.7,3.5-1.3,5.4-2.1,6c-0.8,0.6-2.1,0.9-4.2,0.9c-1.6,0-2.2-0.1-2.6-0.4c-0.4-0.3-0.4-0.8-0.1-2.4
			l2-11.2c3.5-1.8,7.2-4,9.8-5.9c1.1-0.8,1.6-1.2,2.2-1.3c0.3-0.1,0.6-0.2,0.7-0.5c0-0.3,0-0.4-0.2-0.8C42.6,10.4,41.8,9.4,40.9,8.5
			z"/>
		<path class="st1" d="M74,27.7c0-0.2,0.2-1.8,0.8-5.2l1.9-10.8c0.5-2.9,0.7-3.7,0.9-4.3C77.7,7.1,78,6.8,78,6.5
			c0-0.2-0.1-0.4-0.5-0.4c-1.4-0.2-2.6-0.2-3.8-0.3C73.6,7.6,73.4,9,73,11.7l-1.9,10.8c-0.6,3.4-1,5-1,5.2c-0.1,0.4,0,0.4,0.4,0.4h3
			C73.8,28.1,73.9,28.1,74,27.7z"/>
		<path class="st1" d="M64.5,29.8L62.3,31c-0.5,0.3-0.6,0.4-0.5,0.7c0.8,2,1.5,3.4,2.6,5.2c0.3,0.5,0.5,0.8,0.7,0.8
			c0.2,0,0.5-0.2,1-0.7c0.8-0.7,1.7-1.4,2.5-1.8c-1.6-1.8-2.5-3.3-3.4-5.2C65.1,29.6,65,29.6,64.5,29.8z"/>
		<path class="st1" d="M185.6,15.6c-3.8,3.2-7,5.4-12,8.2c-4.5,2.4-7.8,3.8-11.1,5l2.7-14.7c0.5-2.8,0.9-4.2,1.3-5
			c0.2-0.4,0.3-0.6,0.3-0.8c0.1-0.4-0.1-0.6-0.5-0.8c-0.9-0.3-2.9-0.6-5-0.9c0,1.7-0.2,3.7-0.8,7l-2.7,15c-0.2,1.1-0.3,1.9-0.6,2.3
			c-0.2,0.2-0.3,0.5-0.3,0.7c0,0.2,0,0.4,0.1,0.6c0.5,1.1,1.2,2,2,2.7c0.2,0.2,0.4,0.3,0.6,0.3s0.5-0.1,0.8-0.3
			c0.6-0.4,1.4-0.8,2.5-1.3c3.9-1.6,7.3-3.2,10.7-5c3.7-1.9,7.4-4.1,11.2-6.9c0.6-0.4,0.8-0.8,0.7-1.6
			C185.3,19,185.3,17.4,185.6,15.6z"/>
		<path class="st1" d="M145.6,3.5c-0.9,1.7-1.6,2.5-3.2,4.1c-3,3-6.4,5.8-10,8.4c-4.2,3-8,5.4-14,8.2c1.1,0.6,2.3,1.4,3,2.4
			c0.2,0.3,0.4,0.4,0.8,0.4c0.2,0,0.4,0,0.6-0.2c3.5-1.7,8.3-4.7,12.4-7.7l-1.6,9.3c-0.5,2.7-1.1,5.3-1.6,8.2
			c-0.1,0.5,0,0.6,0.4,0.6c1.3,0.1,2.7,0.1,4,0c0.4,0,0.7-0.2,0.7-0.7c0.5-3.2,0.9-5.6,1.3-8.3l2.3-13.2c1.9-1.6,3.7-3.2,5.6-5
			c1.3-1.2,2-1.8,2.8-2.2c0.4-0.2,0.7-0.6,0.7-0.9c0-0.2,0-0.4-0.2-0.6C148.8,5.6,147.2,4.5,145.6,3.5z"/>
		<path class="st1" d="M84.6,3.1c-1.5-0.2-2.6-0.2-4.1-0.3c0,1.8-0.2,3.1-0.7,5.7l-4.3,24.2c-0.2,1.2-0.7,1.5-1.8,1.5
			c-1,0-1.9,0-3.2-0.1c0.3,0.7,0.6,1.8,0.5,3c0,1.2,0,1.2,1.3,1.2c2.7,0,3.9-0.2,4.9-0.9c1.1-0.7,1.8-1.9,2.2-4c0.4-2,0.8-5.2,1.3-8
			l3-17c0.5-2.7,0.7-3.6,0.9-4c0.2-0.3,0.4-0.5,0.4-0.8C85.1,3.3,84.9,3.1,84.6,3.1z"/>
		<path class="st1" d="M112.2,20.6c-3.5-2.4-7.1-3.9-11.8-5.4l1-5.7c0.4-2.2,0.6-3.2,0.9-3.8c0.3-0.4,0.4-0.7,0.5-0.9
			c0.1-0.3-0.1-0.6-0.6-0.7c-1.1-0.3-3.1-0.5-4.9-0.6c0,1.6-0.1,2.9-0.6,5.9l-3.5,19.7c-0.5,2.6-0.9,4.9-1.5,7.9
			c-0.1,0.5,0.1,0.6,0.7,0.6c1.1,0.1,2.4,0.1,3.6,0c0.6,0,0.8-0.1,0.8-0.6c0.4-2.9,0.8-5.2,1.2-7.8l1.6-8.8c3.1,1,6.4,2.8,9.6,5.1
			c0.1,0.2,0.3,0.2,0.4,0.2c0.2,0,0.4-0.2,0.6-0.4c0.7-0.9,1.6-2.2,2.3-3.5C112.7,21.2,112.6,20.9,112.2,20.6z"/>
	</g>
	<g>
		<path class="st1" d="M5.3,66.5c-1.8,0-2.4,0-2.5,0c-0.2,0-0.2,0-0.2-0.2l0.3-1.5c0-0.2,0.1-0.2,0.3-0.2c0.1,0,0.7,0,2.5,0H7
			l0.4-2.5c-0.8,0.2-1.6,0.4-2.5,0.5c-0.6,0.1-0.6,0.1-0.7-0.5c-0.1-0.4-0.3-0.8-0.5-1.1c2.5-0.3,5.1-1,6.6-1.6
			c0.5-0.2,0.8-0.3,1.1-0.5c0.5,0.4,0.9,0.8,1.1,1.2c0.1,0.2,0.2,0.2,0.1,0.4c0,0.2-0.2,0.2-0.4,0.2c-0.3,0-0.6,0.1-0.9,0.3
			c-0.6,0.2-1.2,0.4-1.8,0.6l-0.5,3h0.5c1.7,0,2.3,0,2.5,0c0.2,0,0.2,0,0.2,0.2l-0.3,1.5c0,0.2-0.1,0.2-0.3,0.2c-0.1,0-0.7,0-2.4,0
			H9c0.5,1.4,1.5,2.8,2.4,3.7c-0.4,0.4-0.8,0.9-1.1,1.4C10.2,71.8,10.1,72,10,72c-0.1,0-0.2-0.1-0.3-0.3c-0.6-0.9-1.1-1.9-1.5-3.1
			c-0.9,4.9-1.3,8.2-1.4,8.6c0,0.2-0.1,0.2-0.3,0.2H4.9c-0.2,0-0.2,0-0.2-0.2c0.1-0.4,0.7-3.7,1.6-8.3c-1.1,1.9-2.4,3.6-3.9,5
			c-0.2,0.2-0.3,0.3-0.4,0.3s-0.2-0.1-0.2-0.3c-0.1-0.6-0.3-1.3-0.5-1.6c1.7-1.4,3.5-3.3,5-5.7H5.3z M13.6,63.6
			c0.2-1.3,0.3-2.1,0.4-3c0.7,0,1.4,0.1,2.1,0.2c0.2,0,0.3,0.1,0.2,0.2c0,0.2-0.1,0.3-0.2,0.4c-0.1,0.3-0.2,0.7-0.5,2.2l-1,5.6
			c-0.3,1.7-0.4,2.6-0.4,2.7c0,0.2-0.1,0.2-0.3,0.2h-1.7c-0.2,0-0.2,0-0.2-0.2c0-0.1,0.2-1,0.5-2.7L13.6,63.6z M19.2,70.5
			c-0.3,1.4-0.5,3-0.7,4c-0.2,1-0.4,1.6-1.1,2c-0.6,0.4-1.3,0.5-3.3,0.5c-0.6,0-0.6,0-0.7-0.6c0-0.6-0.2-1.2-0.4-1.6
			c0.8,0.1,1.6,0.1,2.3,0.1c0.7,0,0.9-0.1,1-0.8L18.6,62c0.2-1.3,0.3-1.9,0.3-2.9c0.7,0,1.5,0.1,2.1,0.1c0.2,0,0.3,0.1,0.3,0.2
			c0,0.2-0.1,0.3-0.2,0.4C21,60.1,21,60.6,20.7,62L19.2,70.5z"/>
		<path class="st1" d="M39.5,72.2c-0.2,0.9-0.3,2-0.5,2.8c-0.1,0.8-0.4,1.3-1,1.6c-0.4,0.3-1.1,0.5-2.8,0.5c-0.6,0-0.6,0-0.6-0.6
			c0-0.6-0.1-1.1-0.3-1.5c0.8,0.1,1.2,0.1,1.9,0.1c0.5,0,0.7-0.2,0.8-0.7l0.6-3.4h-4.8l-0.4,2.4c-0.3,2-0.5,2.9-0.5,3
			c0,0.2-0.1,0.2-0.3,0.2h-1.7c-0.2,0-0.2,0-0.2-0.2c0-0.1,0.2-1,0.6-3l0.4-2.4h-4.6c-0.7,2.5-1.6,4.1-2.8,5.6
			c-0.2,0.3-0.3,0.4-0.4,0.4s-0.2-0.1-0.4-0.3c-0.4-0.5-0.8-0.8-1.3-1c1.8-1.9,2.9-4.3,3.7-9.2l0.6-3.3c0.4-2.1,0.5-3.2,0.5-3.3
			c0-0.2,0.1-0.2,0.3-0.2c0.1,0,0.8,0,2.8,0h9.5c2,0,2.7,0,2.8,0c0.2,0,0.2,0,0.2,0.2c0,0.1-0.3,1.2-0.6,3.3L39.5,72.2z M31.1,69.2
			l0.5-2.9h-4.4l0,0.2c-0.2,1-0.3,1.8-0.5,2.6H31.1z M31.9,64.5l0.5-2.8H28l-0.5,2.8H31.9z M38,69.2l0.5-2.9h-4.8l-0.5,2.9H38z
			 M34.5,61.6L34,64.5h4.8l0.5-2.8H34.5z"/>
		<path class="st1" d="M48.8,61.9c0.3-1.4,0.3-2.1,0.4-3.1c0.8,0,1.4,0.1,2.1,0.1c0.2,0,0.3,0.1,0.3,0.2c0,0.1-0.1,0.3-0.2,0.4
			c-0.1,0.3-0.3,0.8-0.5,2.3l-2.1,11.8c-0.4,2.3-0.6,3.5-0.6,3.6c0,0.2-0.1,0.2-0.3,0.2h-1.7c-0.2,0-0.2,0-0.2-0.2
			c0-0.1,0.3-1.3,0.7-3.6l0.6-3.1c-0.8,0.5-1.5,0.9-2.2,1.3c-0.3,0.2-0.5,0.3-0.6,0.4c-0.1,0.1-0.2,0.2-0.3,0.2s-0.2-0.1-0.3-0.2
			c-0.1-0.6-0.3-1.3-0.4-1.9c0.5-0.1,0.8-0.3,1.2-0.5c1.2-0.5,2.1-1,3-1.5L48.8,61.9z M46.6,61.9c0.2-0.1,0.3-0.1,0.3,0.1
			c0.4,1.1,0.7,2.1,0.9,3.4c0,0.2,0,0.3-0.3,0.4l-1.3,0.5c-0.3,0.1-0.3,0.1-0.4-0.1c-0.2-1.2-0.4-2.3-0.8-3.4
			c-0.1-0.2,0-0.3,0.2-0.4L46.6,61.9z M53.9,66.4c-2,0-2.6,0-2.8,0c-0.2,0-0.2,0-0.2-0.2l0.3-1.6c0-0.2,0.1-0.2,0.3-0.2
			c0.1,0,0.8,0,2.8,0h1.4c0.2-0.8,0.3-1.7,0.5-2.7c0.2-1.2,0.3-1.9,0.4-2.8c0.7,0,1.5,0.1,2.2,0.1c0.2,0,0.3,0.1,0.3,0.2
			c0,0.2-0.1,0.3-0.2,0.4c-0.1,0.2-0.2,0.5-0.5,2c-0.2,0.9-0.3,1.8-0.5,2.7h2.4c2,0,2.6,0,2.8,0c0.2,0,0.2,0,0.2,0.2l-0.3,1.6
			c0,0.2-0.1,0.2-0.2,0.2c-0.1,0-0.8,0-2.8,0h-2.1c0.1,3.8,1.5,7,3.9,9c-0.5,0.4-1,0.9-1.4,1.5c-0.2,0.3-0.3,0.4-0.4,0.4
			c-0.1,0-0.2-0.1-0.4-0.2c-1.8-1.7-2.9-4.3-3.2-7.3c-0.2,0.4-0.3,0.8-0.5,1.1c-1.4,2.7-3.1,4.5-5.2,6.2c-0.3,0.2-0.4,0.3-0.5,0.3
			c-0.1,0-0.2-0.1-0.3-0.4c-0.3-0.5-0.6-0.9-0.9-1.2c2.1-1.3,3.6-2.9,5.1-5.6c0.5-1,1-2.2,1.4-3.7H53.9z M60.9,59.7
			c0.1-0.1,0.2-0.1,0.3-0.1c0.1,0,0.1,0.1,0.2,0.1c0.5,0.7,1.1,1.6,1.6,2.6c0.1,0.2,0.1,0.2-0.2,0.4l-1.3,0.7
			c-0.1,0.1-0.2,0.1-0.3,0.1s-0.1,0-0.1-0.2c-0.4-1-0.9-1.9-1.4-2.7c-0.1-0.2-0.1-0.2,0.2-0.4L60.9,59.7z"/>
		<path class="st1" d="M65.8,74.2c0.9-1.1,1.8-2.7,2.9-4.7c0.2,0.3,0.6,0.7,0.9,1c0.3,0.3,0.4,0.4,0.4,0.5c0,0.1-0.1,0.2-0.2,0.4
			c-0.9,1.6-1.9,3.1-2.8,4.5c-0.2,0.3-0.4,0.6-0.5,0.8c-0.1,0.2-0.2,0.3-0.3,0.3c-0.1,0-0.2,0-0.3-0.1c-0.4-0.3-0.9-0.6-1.3-1.1
			C65,75.3,65.3,74.9,65.8,74.2z M67.5,64.3c0.2-0.2,0.2-0.2,0.4-0.1c0.9,0.6,1.8,1.3,2.6,2.2c0.1,0.1,0.1,0.2-0.1,0.4l-1.1,1.2
			C69,68.2,69,68.2,68.8,68c-0.7-0.9-1.6-1.6-2.5-2.3c-0.2-0.1-0.1-0.2,0.1-0.4L67.5,64.3z M69.2,59.1c0.2-0.2,0.3-0.2,0.4-0.1
			c0.9,0.6,1.8,1.4,2.6,2.2c0.1,0.1,0.1,0.1-0.1,0.4L71,62.9c-0.2,0.2-0.3,0.2-0.4,0.1c-0.7-0.9-1.6-1.7-2.5-2.3
			c-0.2-0.1-0.1-0.2,0.1-0.4L69.2,59.1z M76.4,67.9c-0.9,4.8-3,7.6-6.4,9c-0.3,0.1-0.4,0.2-0.5,0.2c-0.1,0-0.2-0.1-0.4-0.4
			c-0.2-0.5-0.6-0.9-1-1.2c3.5-1.1,5.4-3.4,6.2-7.6c-1.4,0-2,0-2.1,0c-0.2,0-0.2,0-0.2-0.2c0-0.1,0.2-0.7,0.4-2l0.6-3.6
			c0.2-1.3,0.3-1.9,0.3-2.1c0-0.2,0.1-0.2,0.3-0.2c0.1,0,0.8,0,2.7,0h4.9c1.8,0,2.5,0,2.6,0c0.2,0,0.2,0,0.2,0.2
			c0,0.1-0.2,0.7-0.4,2.1L83,65.7c-0.2,1.3-0.3,1.9-0.3,2c0,0.2-0.1,0.2-0.3,0.2c-0.1,0-0.7,0-2.3,0L79,74.2
			c-0.1,0.4-0.1,0.6,0.1,0.7c0.1,0.1,0.3,0.1,0.9,0.1c0.4,0,0.8-0.1,0.9-0.3c0.2-0.2,0.5-0.8,0.8-2.6c0.3,0.3,0.7,0.5,1.2,0.6
			c0.5,0.1,0.5,0.1,0.4,0.6c-0.5,1.9-0.8,2.6-1.4,3.1c-0.5,0.4-1.4,0.5-2.6,0.5c-0.9,0-1.9-0.1-2.2-0.3c-0.3-0.3-0.5-0.7-0.3-1.7
			l1.2-7H76.4z M81.6,61.7h-6.4L74.5,66h6.4L81.6,61.7z"/>
		<path class="st1" d="M96.1,72.4c-0.2,1-1.1,1.7-2.1,1.7c-1,0-1.6-0.8-1.4-1.7c0.2-0.9,1-1.7,2-1.7C95.7,70.6,96.3,71.4,96.1,72.4z
			 M97.6,63.8c-0.2,1-1.1,1.7-2.1,1.7c-1,0-1.6-0.8-1.4-1.7c0.2-0.9,1-1.7,2-1.7C97.2,62.1,97.8,62.8,97.6,63.8z"/>
		<path class="st1" d="M109.3,66.5c-1.8,0-2.4,0-2.5,0c-0.2,0-0.2,0-0.2-0.2l0.3-1.5c0-0.2,0.1-0.2,0.3-0.2c0.1,0,0.7,0,2.5,0h1.3
			l0.4-2.5c-0.8,0.2-1.6,0.4-2.5,0.5c-0.6,0.1-0.6,0.1-0.7-0.5c-0.1-0.4-0.3-0.8-0.5-1.1c2.5-0.3,5.1-1,6.6-1.6
			c0.5-0.2,0.8-0.3,1.1-0.5c0.5,0.4,0.9,0.8,1.1,1.2c0.1,0.2,0.2,0.2,0.1,0.4c0,0.2-0.2,0.2-0.4,0.2c-0.3,0-0.6,0.1-0.9,0.3
			c-0.6,0.2-1.2,0.4-1.8,0.6l-0.5,3h0.5c1.7,0,2.3,0,2.5,0c0.2,0,0.2,0,0.2,0.2l-0.3,1.5c0,0.2-0.1,0.2-0.3,0.2c-0.1,0-0.7,0-2.4,0
			H113c0.5,1.4,1.5,2.8,2.4,3.7c-0.4,0.4-0.8,0.9-1.1,1.4c-0.1,0.2-0.2,0.4-0.3,0.4c-0.1,0-0.2-0.1-0.3-0.3
			c-0.6-0.9-1.1-1.9-1.5-3.1c-0.9,4.9-1.3,8.2-1.4,8.6c0,0.2-0.1,0.2-0.3,0.2h-1.7c-0.2,0-0.2,0-0.2-0.2c0.1-0.4,0.7-3.7,1.6-8.3
			c-1.1,1.9-2.4,3.6-3.9,5c-0.2,0.2-0.3,0.3-0.4,0.3s-0.2-0.1-0.2-0.3c-0.1-0.6-0.3-1.3-0.5-1.6c1.7-1.4,3.5-3.3,5-5.7H109.3z
			 M117.5,63.6c0.2-1.3,0.3-2.1,0.4-3c0.7,0,1.4,0.1,2.1,0.2c0.2,0,0.3,0.1,0.2,0.2c0,0.2-0.1,0.3-0.2,0.4c-0.1,0.3-0.2,0.7-0.5,2.2
			l-1,5.6c-0.3,1.7-0.4,2.6-0.4,2.7c0,0.2-0.1,0.2-0.3,0.2h-1.7c-0.2,0-0.2,0-0.2-0.2c0-0.1,0.2-1,0.5-2.7L117.5,63.6z M123.2,70.5
			c-0.3,1.4-0.5,3-0.7,4c-0.2,1-0.4,1.6-1.1,2c-0.6,0.4-1.3,0.5-3.3,0.5c-0.6,0-0.6,0-0.7-0.6c0-0.6-0.2-1.2-0.4-1.6
			c0.8,0.1,1.6,0.1,2.3,0.1c0.7,0,0.9-0.1,1-0.8l2.2-12.2c0.2-1.3,0.3-1.9,0.3-2.9c0.7,0,1.5,0.1,2.1,0.1c0.2,0,0.3,0.1,0.3,0.2
			c0,0.2-0.1,0.3-0.2,0.4c-0.2,0.2-0.2,0.7-0.5,2.1L123.2,70.5z"/>
		<path class="st1" d="M143.1,72.2c-0.2,0.9-0.3,2-0.5,2.8c-0.1,0.8-0.4,1.3-1,1.6c-0.4,0.3-1.1,0.5-2.8,0.5c-0.6,0-0.6,0-0.6-0.6
			c0-0.6-0.1-1.1-0.3-1.5c0.8,0.1,1.2,0.1,1.9,0.1c0.5,0,0.7-0.2,0.8-0.7l0.6-3.4h-4.8l-0.4,2.4c-0.3,2-0.5,2.9-0.5,3
			c0,0.2-0.1,0.2-0.3,0.2h-1.7c-0.2,0-0.2,0-0.2-0.2c0-0.1,0.2-1,0.6-3l0.4-2.4h-4.6c-0.7,2.5-1.6,4.1-2.8,5.6
			c-0.2,0.3-0.3,0.4-0.4,0.4s-0.2-0.1-0.4-0.3c-0.4-0.5-0.8-0.8-1.3-1c1.8-1.9,2.9-4.3,3.7-9.2l0.6-3.3c0.4-2.1,0.5-3.2,0.5-3.3
			c0-0.2,0.1-0.2,0.3-0.2c0.1,0,0.8,0,2.8,0h9.5c2,0,2.7,0,2.8,0c0.2,0,0.2,0,0.2,0.2c0,0.1-0.3,1.2-0.6,3.3L143.1,72.2z
			 M134.6,69.2l0.5-2.9h-4.4l0,0.2c-0.2,1-0.3,1.8-0.5,2.6H134.6z M135.5,64.5l0.5-2.8h-4.4l-0.5,2.8H135.5z M141.5,69.2l0.5-2.9
			h-4.8l-0.5,2.9H141.5z M138.1,61.6l-0.5,2.8h4.8l0.5-2.8H138.1z"/>
		<path class="st1" d="M156,61.3c0.2-1.1,0.3-1.9,0.3-2.6c0.7,0,1.6,0.1,2.2,0.1c0.2,0,0.3,0.1,0.3,0.2c0,0.1-0.1,0.3-0.2,0.4
			c-0.1,0.2-0.3,0.7-0.5,1.6l-0.3,1.5h3.9c2,0,2.6,0,2.8,0c0.2,0,0.2,0,0.2,0.2c0,0.1-0.2,0.8-0.5,2.5l-0.4,2.4
			c-0.6,3.2-0.6,3.8-0.7,4c0,0.2-0.1,0.2-0.3,0.2h-1.7c-0.2,0-0.2,0-0.2-0.2l0.2-0.9h-4.8l-0.4,2.5c-0.4,2.4-0.6,3.7-0.6,3.8
			c0,0.2-0.1,0.2-0.3,0.2h-1.8c-0.2,0-0.2,0-0.2-0.2c0-0.1,0.3-1.3,0.7-3.7l0.4-2.5h-4.5l-0.2,0.9c0,0.2-0.1,0.2-0.3,0.2h-1.7
			c-0.2,0-0.2,0-0.2-0.2c0-0.1,0.2-0.7,0.7-4l0.4-2.1c0.4-2.1,0.4-2.7,0.5-2.8c0-0.2,0.1-0.2,0.3-0.2c0.1,0,0.8,0,2.8,0h3.7
			L156,61.3z M150.2,68.9h4.5l0.7-4.2H151L150.2,68.9z M157.6,64.7l-0.7,4.2h4.8l0.7-4.2H157.6z"/>
	</g>
	<g>
		<path class="st1" d="M5.3,97.5c-1.8,0-2.4,0-2.5,0c-0.2,0-0.2,0-0.2-0.2l0.3-1.5c0-0.2,0.1-0.2,0.3-0.2c0.1,0,0.7,0,2.5,0H7
			l0.4-2.5c-0.8,0.2-1.6,0.4-2.5,0.5c-0.6,0.1-0.6,0.1-0.7-0.5c-0.1-0.4-0.3-0.8-0.5-1.1c2.5-0.3,5.1-1,6.6-1.6
			c0.5-0.2,0.8-0.3,1.1-0.5c0.5,0.4,0.9,0.8,1.1,1.2c0.1,0.2,0.2,0.2,0.1,0.4c0,0.2-0.2,0.2-0.4,0.2c-0.3,0-0.6,0.1-0.9,0.3
			c-0.6,0.2-1.2,0.4-1.8,0.6l-0.5,3h0.5c1.7,0,2.3,0,2.5,0c0.2,0,0.2,0,0.2,0.2l-0.3,1.5c0,0.2-0.1,0.2-0.3,0.2c-0.1,0-0.7,0-2.4,0
			H9c0.5,1.4,1.5,2.8,2.4,3.7c-0.4,0.4-0.8,0.9-1.1,1.4c-0.1,0.2-0.2,0.4-0.3,0.4c-0.1,0-0.2-0.1-0.3-0.3c-0.6-0.9-1.1-1.9-1.5-3.1
			c-0.9,4.9-1.3,8.2-1.4,8.6c0,0.2-0.1,0.2-0.3,0.2H4.9c-0.2,0-0.2,0-0.2-0.2c0.1-0.4,0.7-3.7,1.6-8.3c-1.1,1.9-2.4,3.6-3.9,5
			c-0.2,0.2-0.3,0.3-0.4,0.3s-0.2-0.1-0.2-0.3c-0.1-0.6-0.3-1.3-0.5-1.6c1.7-1.4,3.5-3.3,5-5.7H5.3z M13.6,94.6
			c0.2-1.3,0.3-2.1,0.4-3c0.7,0,1.4,0.1,2.1,0.2c0.2,0,0.3,0.1,0.2,0.2c0,0.2-0.1,0.3-0.2,0.4c-0.1,0.3-0.2,0.7-0.5,2.2l-1,5.6
			c-0.3,1.7-0.4,2.6-0.4,2.7c0,0.2-0.1,0.2-0.3,0.2h-1.7c-0.2,0-0.2,0-0.2-0.2c0-0.1,0.2-1,0.5-2.7L13.6,94.6z M19.2,101.5
			c-0.3,1.4-0.5,3-0.7,4c-0.2,1-0.4,1.6-1.1,2c-0.6,0.4-1.3,0.5-3.3,0.5c-0.6,0-0.6,0-0.7-0.6c0-0.6-0.2-1.2-0.4-1.6
			c0.8,0.1,1.6,0.1,2.3,0.1c0.7,0,0.9-0.1,1-0.8L18.6,93c0.2-1.3,0.3-1.9,0.3-2.9c0.7,0,1.5,0.1,2.1,0.1c0.2,0,0.3,0.1,0.3,0.2
			c0,0.2-0.1,0.3-0.2,0.4C21,91.1,21,91.6,20.7,93L19.2,101.5z"/>
		<path class="st1" d="M39.1,103.2c-0.2,0.9-0.3,2-0.5,2.8c-0.1,0.8-0.4,1.3-1,1.6c-0.4,0.3-1.1,0.5-2.8,0.5c-0.6,0-0.6,0-0.6-0.6
			c0-0.6-0.1-1.1-0.3-1.5c0.8,0.1,1.2,0.1,1.9,0.1c0.5,0,0.7-0.2,0.8-0.7l0.6-3.4h-4.8l-0.4,2.4c-0.3,2-0.5,2.9-0.5,3
			c0,0.2-0.1,0.2-0.3,0.2h-1.7c-0.2,0-0.2,0-0.2-0.2c0-0.1,0.2-1,0.6-3l0.4-2.4h-4.6c-0.7,2.5-1.6,4.1-2.8,5.6
			c-0.2,0.3-0.3,0.4-0.4,0.4s-0.2-0.1-0.4-0.3c-0.4-0.5-0.8-0.8-1.3-1c1.8-1.9,2.9-4.3,3.7-9.2l0.6-3.3c0.4-2.1,0.5-3.2,0.5-3.3
			c0-0.2,0.1-0.2,0.3-0.2c0.1,0,0.8,0,2.8,0h9.5c2,0,2.7,0,2.8,0c0.2,0,0.2,0,0.2,0.2c0,0.1-0.3,1.2-0.6,3.3L39.1,103.2z
			 M30.7,100.2l0.5-2.9h-4.4l0,0.2c-0.2,1-0.3,1.8-0.5,2.6H30.7z M31.5,95.5l0.5-2.8h-4.4l-0.5,2.8H31.5z M37.6,100.2l0.5-2.9h-4.8
			l-0.5,2.9H37.6z M34.1,92.6l-0.5,2.8h4.8l0.5-2.8H34.1z"/>
		<path class="st1" d="M49.2,99.8c-0.9,5.1-1,6-1,6.1c0,0.2-0.1,0.2-0.3,0.2h-1.5c-0.2,0-0.2,0-0.2-0.2l0.2-0.9h-1.9l-0.3,1.6
			c0,0.2-0.1,0.2-0.2,0.2h-1.5c-0.2,0-0.2,0-0.2-0.2c0-0.1,0.2-1.2,1.1-6.3l0.8-4.4c0.6-3.7,0.8-4.8,0.8-4.9c0-0.2,0.1-0.2,0.3-0.2
			c0.1,0,0.5,0,1.7,0h1.7c1.2,0,1.6,0,1.8,0c0.2,0,0.2,0,0.2,0.2c0,0.1-0.2,1.1-0.8,4.1L49.2,99.8z M46.7,103.2l0.8-4.4h-1.9
			l-0.8,4.4H46.7z M46.7,92.8L46,97h1.9l0.7-4.2H46.7z M52.5,101.6c-1.9,0-2.6,0-2.7,0c-0.2,0-0.2,0-0.2-0.2l0.3-1.4
			c0-0.2,0.1-0.2,0.3-0.2c0.1,0,0.8,0,2.7,0h4C56.9,99,57,98.5,57,98c0.8,0,1.5,0.1,2,0.2c0.2,0,0.3,0.1,0.3,0.2
			c0,0.1-0.1,0.2-0.2,0.3c-0.1,0.2-0.2,0.4-0.3,1c1.4,0,1.9,0,2,0c0.2,0,0.2,0,0.2,0.2l-0.3,1.4c0,0.2-0.1,0.2-0.3,0.2
			c-0.1,0-0.6,0-2,0l-0.4,2c-0.2,0.9-0.3,1.8-0.4,2.5c-0.1,0.8-0.4,1.3-1,1.7c-0.5,0.3-1.2,0.4-2.7,0.4c-0.6,0-0.6,0-0.7-0.6
			c0-0.6-0.2-1.1-0.3-1.5c0.7,0.1,1.3,0.1,2,0.1c0.5,0,0.7-0.2,0.8-0.6l0.7-4H52.5z M53.1,97.8c-1.9,0-2.6,0-2.7,0
			c-0.2,0-0.2,0-0.2-0.2l0.2-1.4c0-0.2,0.1-0.2,0.3-0.2c0.1,0,0.8,0,2.7,0h1.5l0.4-2.1h-1c-1.8,0-2.4,0-2.6,0c-0.2,0-0.2,0-0.2-0.2
			l0.3-1.4c0-0.2,0.1-0.2,0.3-0.2c0.1,0,0.7,0,2.6,0h1c0.2-1.1,0.2-1.6,0.3-2.3c0.8,0,1.3,0.1,2.1,0.1c0.2,0,0.3,0.1,0.3,0.2
			c0,0.2-0.1,0.3-0.2,0.4c-0.1,0.2-0.2,0.6-0.4,1.5H59c1.8,0,2.5,0,2.6,0c0.2,0,0.2,0,0.2,0.2l-0.3,1.4c0,0.2-0.1,0.2-0.3,0.2
			c-0.1,0-0.7,0-2.6,0h-1.4L56.9,96h2.2c1.9,0,2.6,0,2.7,0c0.2,0,0.2,0,0.2,0.2l-0.2,1.4c0,0.2-0.1,0.2-0.3,0.2c-0.1,0-0.8,0-2.7,0
			H53.1z M52,102.2c0.2-0.1,0.3-0.1,0.4,0c0.6,0.7,1,1.5,1.5,2.3c0.1,0.2,0.1,0.2-0.2,0.4l-1.4,0.9c-0.1,0.1-0.2,0.1-0.3,0.1
			c-0.1,0-0.1,0-0.1-0.1c-0.4-1-0.9-1.8-1.3-2.5c-0.1-0.2-0.1-0.2,0.2-0.4L52,102.2z"/>
		<path class="st1" d="M70.9,90.4c1.3,0,1.9,0,2.1,0c0.2,0,0.2,0,0.2,0.2c0,0.1-0.2,0.7-0.4,1.9L72.3,95C72.1,96.3,72,96.9,72,97
			c0,0.2-0.1,0.2-0.2,0.2c-0.1,0-0.7,0-2,0h-3.3l-1.2,6.6c-0.5,2.8-0.7,4.2-0.7,4.3c0,0.2-0.1,0.2-0.3,0.2h-1.7
			c-0.2,0-0.2,0-0.2-0.2c0-0.1,0.3-1.5,0.8-4.3l1.6-8.8c0.5-2.8,0.7-4.2,0.7-4.4c0-0.2,0.1-0.2,0.3-0.2c0.1,0,0.9,0,2.4,0H70.9z
			 M70.4,94.5h-3.5l-0.2,1.2h3.5L70.4,94.5z M67.3,91.9l-0.2,1.2h3.5l0.2-1.2H67.3z M67.4,106.9c-0.2,0-0.2,0-0.2-0.2
			c0-0.1,0.2-0.7,0.7-3.7l0.3-1.8c0.3-1.8,0.4-2.4,0.4-2.5c0-0.2,0.1-0.2,0.3-0.2c0.1,0,0.6,0,2.2,0h2.7c1.5,0,2,0,2.2,0
			c0.2,0,0.2,0,0.2,0.2c0,0.1-0.2,0.7-0.4,2.2l-0.4,2c-0.5,2.9-0.6,3.5-0.6,3.6c0,0.2-0.1,0.2-0.3,0.2h-1.5c-0.2,0-0.2,0-0.2-0.2
			l0.1-0.6h-3.7l-0.1,0.8c0,0.2-0.1,0.2-0.3,0.2H67.4z M73.3,104.3l0.3-1.4h-3.7l-0.3,1.4H73.3z M70.1,101.4h3.7L74,100h-3.7
			L70.1,101.4z M80.4,101.6c-0.3,1.4-0.5,3-0.6,4c-0.2,1-0.4,1.5-0.9,1.9c-0.5,0.4-1.1,0.5-3,0.5c-0.6,0-0.6,0-0.6-0.6
			c0-0.6-0.1-1.1-0.2-1.5c0.6,0.1,1.3,0.1,1.7,0.1c0.7,0,0.9-0.2,1-0.8l1.4-8.1h-3.3c-1.6,0-2.1,0-2.2,0c-0.2,0-0.2,0-0.2-0.2
			c0-0.1,0.1-0.6,0.4-1.8l0.5-2.8c0.2-1.2,0.3-1.7,0.3-1.8c0-0.2,0.1-0.2,0.3-0.2c0.1,0,0.6,0,2.2,0h3c1.6,0,2.1,0,2.3,0
			c0.2,0,0.2,0,0.2,0.2c0,0.1-0.2,1-0.5,2.7L80.4,101.6z M79.4,95.7l0.2-1.2h-3.8l-0.2,1.2H79.4z M76.3,91.9l-0.2,1.2h3.8l0.2-1.2
			H76.3z"/>
		<path class="st1" d="M93.7,103.4c-0.2,1-1.1,1.7-2.1,1.7c-1,0-1.6-0.8-1.4-1.7c0.2-0.9,1-1.7,2-1.7
			C93.2,101.6,93.9,102.4,93.7,103.4z M95.2,94.8c-0.2,1-1.1,1.7-2.1,1.7c-1,0-1.6-0.8-1.4-1.7c0.2-0.9,1-1.7,2-1.7
			C94.7,93.1,95.4,93.8,95.2,94.8z"/>
		<path class="st1" d="M114.4,93.1c-3.3,4.2-5.3,8.2-6.6,13.7h-2.9c1.4-5.4,3.8-9.4,7-13.4h-7l0.4-2.1h9.4L114.4,93.1z"/>
		<path class="st1" d="M133.6,90.2c0.3-0.1,0.3-0.1,0.4,0.1c0.8,3.1,2.8,5.9,5.3,7.5c-0.4,0.3-1,0.9-1.4,1.5
			c-0.2,0.3-0.3,0.4-0.5,0.4c-0.1,0-0.2-0.1-0.4-0.3c-0.6-0.5-1.2-1.1-1.6-1.6c-0.1,0.6-0.3,1.3-0.4,2c-0.4,2.2-0.9,3.8-1.5,5.7
			c-0.5,1.6-1.5,2.5-3.5,2.5c-0.5,0-0.9,0-1.4,0c-0.6,0-0.6,0-0.6-0.7c0-0.7-0.1-1.2-0.3-1.6c1,0.1,1.6,0.2,2.3,0.2
			c0.9,0,1.3-0.3,1.6-1.3c0.4-1.2,0.8-2.7,1.3-5h-3.6c-1.1,4.1-3.6,6.9-7.7,8.6c-0.2,0.1-0.4,0.2-0.5,0.2c-0.2,0-0.2-0.1-0.3-0.5
			c-0.2-0.5-0.5-0.9-0.8-1.2c3.9-1.3,6.1-3.5,7.1-7.1h-0.2c-1.9,0-2.6,0-2.7,0c-0.2,0-0.2,0-0.2-0.2l0.3-1.5
			c-0.7,0.6-1.5,1.2-2.3,1.7c-0.3,0.2-0.4,0.3-0.5,0.3c-0.1,0-0.2-0.1-0.3-0.4c-0.2-0.5-0.6-1-0.9-1.2c3.1-1.8,5.4-4.2,7.1-6.7
			c0.3-0.4,0.4-0.8,0.6-1.3c0.7,0.2,1.5,0.5,2,0.7c0.2,0.1,0.2,0.2,0.2,0.3c0,0.1-0.1,0.2-0.2,0.3c-0.2,0.2-0.4,0.3-0.6,0.6
			c-1.4,2.2-2.9,3.9-4.7,5.4c0.3,0,1,0,2.6,0h5.5c1.8,0,2.4,0,2.6,0c-1.6-1.9-2.6-4.1-3.2-6.4c0-0.2,0-0.2,0.2-0.3L133.6,90.2z"/>
	</g>
	<path class="st1" d="M13.9,151.5c-0.7,0.1-1.4,0.1-2.2,0.1c-2.3,0-3.1-0.6-3.4-2.4L8.1,148c-3.6-0.3-5.5-3.2-4.7-8.1
		c0.9-5.2,4.2-8.2,8.2-8.2c4,0,6.2,2.9,5.3,8.1c-0.8,4.4-3.2,7.2-6.3,7.9l0.1,0.8c0.2,0.8,0.6,1.1,1.8,1.1c0.7,0,1.3-0.1,2-0.2
		L13.9,151.5z M6.3,140c-0.7,4,0.5,6,2.8,6s4.2-2.1,4.9-6c0.7-4-0.5-6-2.8-6S7,135.9,6.3,140z"/>
	<path class="st1" d="M26.9,132.1c3.8,0,5.3,1.5,4.8,4.3c-0.3,1.9-1.7,3.4-3.8,4l2.3,7.5h-2.9l-1.9-7.1c-0.2,0-0.5,0-0.7,0h-2.2
		l-1.2,7h-2.7l2.8-15.8H26.9z M22.7,138.8h2.7c2.2,0,3.2-0.9,3.5-2.4c0.2-1.4-0.4-2.3-2.6-2.3h-2.9L22.7,138.8z"/>
	<path class="st1" d="M43.7,144.9c0,0.2-0.2,0.3-0.5,0.4c-0.3,0-0.9,0.1-1.5,0.1c-0.2,0-0.2-0.1-0.2-0.3c0.1-0.7,0.3-1.7,0.5-2.5
		c-2,0.9-2.8,1.7-2.9,2.7c-0.2,0.9,0.4,1.4,2.6,1.4c1.9,0,3.5-0.2,5.1-0.4c0.2,0,0.3,0,0.2,0.2c0,0.5,0,1.2-0.1,1.7
		c0,0.2-0.1,0.4-0.3,0.4c-1.8,0.2-3.1,0.3-5.1,0.3c-3.3,0-4.9-1-4.5-3.3c0.3-1.9,1.8-3.4,5.2-5c0.1-1-0.1-1.4-1-1.4
		c-1,0-2,0.6-3.1,1.5c-1,0.9-1.6,1.4-2.4,2.2c-0.1,0.1-0.2,0.2-0.3,0.2c-0.1,0-0.1-0.1-0.2-0.1c-0.2-0.3-0.7-0.9-0.9-1.3
		c0-0.1-0.1-0.1,0-0.2c0-0.1,0.1-0.1,0.2-0.2c1.8-1.4,3.6-3,5.1-5c-1,0-2.1,0.1-3.3,0.1c-0.2,0-0.2-0.1-0.2-0.3c0-0.3,0-1.1,0.1-1.7
		c1.5,0.1,3.1,0.1,4.7,0c0.3-0.5,0.6-1,0.9-1.7c0.1-0.3,0.3-0.7,0.4-1.2c0.9,0.1,1.7,0.4,2.2,0.6c0.2,0.1,0.2,0.2,0.2,0.3
		c0,0.1-0.1,0.2-0.2,0.3c-0.1,0.1-0.3,0.3-0.4,0.5c-0.2,0.3-0.3,0.5-0.7,1.1c1.3-0.1,2.5-0.3,3.8-0.6c0.2,0,0.3,0,0.3,0.2
		c0,0.4,0,0.9-0.1,1.5c0,0.2-0.1,0.3-0.4,0.3c-1.6,0.2-3.3,0.4-4.9,0.6c-0.6,0.8-1.2,1.5-1.9,2.3l0,0c0.7-0.4,1.6-0.6,2.1-0.6
		c1.3,0,2.2,0.6,2.1,2.2c0.9-0.4,2.1-0.9,3.2-1.4c0.4-0.2,1.1-0.6,1.7-1.1c0.5,0.7,0.9,1.4,1.1,1.8c0.1,0.2,0.1,0.3,0.1,0.4
		c0,0.2-0.1,0.2-0.4,0.3c-0.4,0.1-0.9,0.2-1.3,0.3c-1.4,0.5-2.8,0.9-4.7,1.6L43.7,144.9z"/>
	<path class="st1" d="M55.1,141c-1.8,0-2.4,0-2.5,0c-0.2,0-0.2,0-0.2-0.2l0.3-1.4c0-0.2,0.1-0.2,0.2-0.2c0.1,0,0.7,0,2.5,0h5.1
		l0.3-1.5h-2.6c-2,0-2.7,0-2.8,0c-0.2,0-0.2,0-0.2-0.2l0.2-1.4c0-0.2,0.1-0.2,0.3-0.2c0.1,0,0.8,0,2.8,0h2.6l0.2-1.4h-3.6
		c-1.9,0-2.6,0-2.7,0c-0.2,0-0.2,0-0.2-0.2l0.2-1.4c0-0.2,0.1-0.2,0.3-0.2c0.1,0,0.8,0,2.7,0h3.6l0-0.2c0.1-0.8,0.2-1.4,0.2-1.9
		c0.7,0,1.5,0.1,2.2,0.1c0.2,0,0.3,0.1,0.3,0.2c0,0.2-0.1,0.3-0.2,0.4c-0.2,0.2-0.2,0.5-0.3,1.1l0,0.2h3.9c2,0,2.6,0,2.7,0
		c0.2,0,0.2,0,0.2,0.2l-0.2,1.4c0,0.2-0.1,0.2-0.3,0.2c-0.1,0-0.8,0-2.7,0h-3.9l-0.2,1.4h3c2,0,2.7,0,2.8,0c0.2,0,0.2,0,0.2,0.2
		l-0.2,1.4c0,0.2-0.1,0.2-0.3,0.2c-0.1,0-0.8,0-2.8,0h-3l-0.3,1.5h5.5c1.8,0,2.4,0,2.5,0c0.2,0,0.2,0,0.2,0.2l-0.3,1.4
		c0,0.2,0,0.2-0.2,0.2c-0.1,0-0.7,0-2.5,0h-4.4c0.2,0.9,0.6,1.8,1.1,2.6c0.7-0.5,1.4-1,2-1.6c0.3-0.2,0.5-0.5,0.8-0.9
		c0.6,0.4,1,0.7,1.4,1.1c0.1,0.1,0.2,0.2,0.1,0.3c0,0.2-0.1,0.2-0.3,0.3c-0.2,0-0.4,0.1-0.7,0.4c-0.7,0.5-1.4,1.1-2.3,1.6
		c1.1,1.1,2.5,1.9,4.3,2.4c-0.4,0.3-0.9,0.8-1.3,1.4c-0.2,0.3-0.3,0.5-0.5,0.5c-0.1,0-0.2-0.1-0.5-0.1c-3.6-1.6-5.6-4.4-6.2-7.9
		h-0.2c-0.6,0.5-1.2,1-1.9,1.5l-0.7,4.2c1.4-0.3,2.9-0.6,4.5-1c-0.1,0.4-0.2,0.8-0.3,1.2c-0.1,0.6-0.1,0.6-0.8,0.8
		c-2.6,0.6-5.1,1.1-7,1.4c-0.4,0.1-0.7,0.1-0.8,0.2c-0.1,0.1-0.2,0.1-0.3,0.1c-0.1,0-0.3-0.1-0.3-0.3c-0.1-0.6-0.1-1.2-0.2-1.8
		c0.8,0,1.6-0.1,2.5-0.2l0.7-0.1L57,144c-1.3,0.7-2.7,1.3-4,1.8c-0.2,0.1-0.4,0.1-0.5,0.1c-0.2,0-0.2-0.1-0.4-0.5
		c-0.2-0.5-0.4-0.8-0.7-1.1c2.5-0.6,5.3-1.8,7.1-3.2H55.1z"/>
	<path class="st1" d="M75.4,142.2c0.4-0.5,0.7-1.1,0.8-1.6c0.6,0.2,1.4,0.5,1.9,0.7c0.2,0.1,0.3,0.2,0.2,0.3c0,0.1-0.2,0.3-0.3,0.4
		c-0.2,0.1-0.4,0.5-0.6,0.8c-0.9,1.4-2.3,3-3.8,4.3c-0.3,0.2-0.4,0.3-0.5,0.3c-0.1,0-0.2-0.1-0.4-0.3c-0.3-0.4-0.8-0.8-1.1-1
		C73.1,145,74.5,143.5,75.4,142.2z M76,139c-1.8,0-2.4,0-2.6,0c-0.2,0-0.2,0-0.2-0.2l0.3-1.7c0-0.2,0.1-0.2,0.3-0.2
		c0.1,0,0.7,0,2.6,0h12.3c1.8,0,2.4,0,2.6,0c0.2,0,0.2,0,0.2,0.2l-0.3,1.7c0,0.2-0.1,0.2-0.3,0.2c-0.1,0-0.7,0-2.6,0h-5l-0.9,5
		c-0.2,1-0.3,2.1-0.4,2.8c-0.2,0.9-0.4,1.4-1,1.8c-0.5,0.4-1.3,0.5-3.2,0.5c-0.6,0-0.6,0-0.7-0.7c-0.1-0.6-0.2-1.2-0.3-1.6
		c0.7,0.1,1.3,0.1,1.9,0.1c0.7,0,1-0.2,1-0.8l1.3-7.2H76z M79.1,134.2c-2,0-2.7,0-2.8,0c-0.2,0-0.2,0-0.2-0.2l0.3-1.7
		c0-0.2,0.1-0.2,0.3-0.2c0.1,0,0.8,0,2.8,0h7.8c2,0,2.7,0,2.8,0c0.2,0,0.2,0,0.2,0.2L90,134c0,0.2-0.1,0.2-0.3,0.2
		c-0.1,0-0.8,0-2.8,0H79.1z M86.8,140.6c0.3-0.1,0.3-0.1,0.4,0.1c0.6,1.9,1.7,3.6,3.2,4.9c-0.4,0.3-1,0.7-1.5,1.2
		c-0.3,0.3-0.4,0.4-0.5,0.4c-0.1,0-0.2-0.1-0.4-0.3c-1.2-1.5-2.2-3.4-2.8-5.4c0-0.2,0-0.2,0.3-0.4L86.8,140.6z"/>
	<rect y="154.6" class="st1" width="104.1" height="2"/>
	<polygon class="st1" points="108.6,156.6 97.9,156.6 97.9,149.9 	"/>
</g>
<g id="レイヤー_2" class="st2">
	
		<image style="overflow:visible;" width="564" height="391" xlink:href="1c8aabf93b92272fad1087698c468049.jpg"  transform="matrix(2.0007 0 0 2.0007 208 323.9914)">
	</image>
</g>
<g id="レイヤー_3">
	<polygon class="st3" points="569.5,645.5 545.5,645.5 545.5,624.5 528.5,624.5 528.5,580.5 564.5,580.5 564.5,557.5 528.5,557.5 
		528.5,477.5 577,477.5 577,480.5 531.5,480.5 531.5,554.5 567.5,554.5 567.5,583.5 531.5,583.5 531.5,621.5 548.5,621.5 
		548.5,642.5 566.5,642.5 566.5,619.5 577,619.5 577,622.5 569.5,622.5 	"/>
	<polygon class="st3" points="531.5,895 528.5,895 528.5,823.5 591.5,823.5 591.5,648.5 602,648.5 602,651.5 594.5,651.5 
		594.5,826.5 531.5,826.5 	"/>
	<polygon class="st3" points="727.5,1027.5 528.5,1027.5 528.5,914 531.5,914 531.5,1024.5 724.5,1024.5 724.5,927 727.5,927 	"/>
	<polygon class="st3" points="727.5,895 724.5,895 724.5,858.5 893.4,858.5 857.6,406.5 739.5,406.5 739.5,423.5 669.5,423.5 
		669.5,445.5 629.5,445.5 629.5,480.5 593,480.5 593,477.5 626.5,477.5 626.5,442.5 666.5,442.5 666.5,420.5 736.5,420.5 
		736.5,403.5 860.4,403.5 896.6,861.5 727.5,861.5 	"/>
	<polygon class="st3" points="679.5,861 678.5,861 678.5,823.5 703.5,823.5 703.5,756.5 693.5,756.5 693.5,683.5 708.5,683.5 
		708.5,620.5 648.5,620.5 648.5,444 649.5,444 649.5,619.5 709.5,619.5 709.5,684.5 694.5,684.5 694.5,755.5 704.5,755.5 
		704.5,824.5 679.5,824.5 	"/>
	<polygon class="st3" points="889.5,791.5 799.5,791.5 799.5,753.5 888.8,753.5 888.8,754.5 800.5,754.5 800.5,790.5 889.5,790.5 	
		"/>
	<polygon class="st3" points="870,613.5 771.7,613.5 771.7,580.5 872.9,580.5 872.9,581.5 772.7,581.5 772.7,612.5 870,612.5 	"/>
	<path class="st3" d="M793.5,528.5h-31v-38h31V528.5z M763.5,527.5h29v-36h-29V527.5z"/>
	<path class="st3" d="M868,511.9h-38.5v-38H865L868,511.9z"/>
	<path class="st3" d="M821.6,581.5h-69.1v-36h69.1V581.5z M753.5,580.5h67.1v-34h-67.1V580.5z"/>
	<rect x="786.6" y="546" class="st3" width="1" height="35"/>
	<path class="st3" d="M737.5,445.5h-70v-24h70V445.5z M668.5,444.5h68v-22h-68V444.5z"/>
	<path class="st3" d="M772.7,422.5h-35.2v-18h35.2V422.5z M738.5,421.5h33.2v-16h-33.2V421.5z"/>
	<path class="st3" d="M672.5,1026.5h-62v-86h62V1026.5z M611.5,1025.5h60v-84h-60V1025.5z"/>
	<path class="st3" d="M726.5,1026.5h-41v-93h41V1026.5z M686.5,1025.5h39v-91h-39V1025.5z"/>
	<path class="st3" d="M602.5,1026.5h-73v-93h73V1026.5z M530.5,1025.5h71v-91h-71V1025.5z"/>
	<path class="st3" d="M594.4,861.5h-64.9v-37h64.9V861.5z"/>
	<path class="st3" d="M679.5,877.5h-31v-17h31V877.5z M649.5,876.5h29v-15h-29V876.5z"/>
	<path class="st3" d="M593.5,885.5H546v-17h47.5V885.5z M547,884.5h45.5v-15H547V884.5z"/>
	<rect x="602" y="648.5" class="st3" width="47" height="3"/>
	<polygon class="st3" points="649,608.5 565.5,608.5 565.5,479 566.5,479 566.5,607.5 649,607.5 	"/>
	<rect x="602" y="519.5" class="st3" width="47" height="1"/>
	<polygon class="st3" points="845.5,754 844.5,754 844.5,682.1 881,682.1 881,683.1 845.5,683.1 	"/>
	<rect x="845" y="717.8" class="st3" width="38.8" height="1"/>
	<polygon class="st3" points="602.5,537.6 566,537.6 566,536.6 601.5,536.6 601.5,479.6 649,479.6 649,480.6 602.5,480.6 	"/>
	<path class="st3" d="M787.6,650.5h-15.8v-38h15.8V650.5z M772.7,649.5h13.8v-36h-13.8V649.5z"/>
	<path class="st3" d="M829,650.5h-15.8v-38H829V650.5z M814.2,649.5H828v-36h-13.8V649.5z"/>
	<path class="st3" d="M878.9,650.5h-41.8v-38h38.8L878.9,650.5z M838.1,649.5h39.8l-2.8-36h-36.9V649.5z"/>
	<path class="st3" d="M829,703.5h-57.3v-34H829V703.5z M772.7,702.5H828v-32h-55.3V702.5z"/>
	<path class="st3" d="M832.5,826.5h-45.9v-36h45.9V826.5z M787.6,825.5h43.9v-34h-43.9V825.5z"/>
	<path class="st3" d="M816.5,754.5h-29.9v-36.7h29.9V754.5z M787.6,753.5h27.9v-34.7h-27.9V753.5z"/>
	<polygon class="st3" points="605.6,634.4 602.6,634.4 602.6,623.2 593,623.2 593,620.2 605.6,620.2 	"/>
	<rect x="786.6" y="670" class="st3" width="1" height="33"/>
	<rect x="799.9" y="670" class="st3" width="1" height="33"/>
</g>
<g id="レイヤー_4" class="st4">
	<g class="st5">
		<circle cx="625" cy="499.3" r="7.3"/>
		<circle cx="611.4" cy="568.8" r="7.3"/>
		<circle cx="550.1" cy="600.7" r="7.3"/>
		<circle cx="550.1" cy="516.8" r="7.3"/>
		<circle cx="740.6" cy="654" r="7.3"/>
		<circle cx="864.4" cy="703" r="7.3"/>
		<circle cx="878.4" cy="842" r="7.3"/>
		<circle cx="649" cy="772.5" r="7.3"/>
		<circle cx="625" cy="843" r="7.3"/>
		<circle cx="604.1" cy="908.3" r="7.3"/>
		<circle cx="561.5" cy="980" r="7.3"/>
		<circle cx="641.5" cy="980" r="7.3"/>
		<circle cx="706" cy="980" r="7.3"/>
		<circle cx="625" cy="682.6" r="7.3"/>
		<circle cx="566" cy="843" r="7.3"/>
	</g>
</g>
</svg>
